<mxfile host="app.diagrams.net" modified="2020-12-07T07:20:39.862Z" agent="5.0 (Windows NT 10.0; Win64; x64) AppleWebKit/537.36 (KHTML, like Gecko) Chrome/87.0.4280.66 Safari/537.36" etag="JOBpqsh09OrJvJNN99Gr" version="13.10.9" type="github">
  <diagram id="uUYi-dty24SCdnFy3V2Z" name="Page-1">
    <mxGraphModel dx="868" dy="482" grid="1" gridSize="10" guides="1" tooltips="1" connect="1" arrows="1" fold="1" page="1" pageScale="1" pageWidth="850" pageHeight="1100" math="0" shadow="0">
      <root>
        <mxCell id="0" />
        <mxCell id="1" parent="0" />
        <mxCell id="lyOv5FIl9pwsdQ8Ih314-1" value="" style="aspect=fixed;html=1;points=[];align=center;image;fontSize=12;image=img/lib/azure2/identity/Users.svg;" vertex="1" parent="1">
          <mxGeometry x="20" y="90" width="54.86" height="60" as="geometry" />
        </mxCell>
        <mxCell id="lyOv5FIl9pwsdQ8Ih314-2" value="" style="aspect=fixed;html=1;points=[];align=center;image;fontSize=12;image=img/lib/azure2/identity/Users.svg;" vertex="1" parent="1">
          <mxGeometry x="20" y="235" width="54.86" height="60" as="geometry" />
        </mxCell>
        <mxCell id="lyOv5FIl9pwsdQ8Ih314-3" value="" style="aspect=fixed;html=1;points=[];align=center;image;fontSize=12;image=img/lib/azure2/identity/Users.svg;" vertex="1" parent="1">
          <mxGeometry x="20" y="380" width="54.86" height="60" as="geometry" />
        </mxCell>
        <mxCell id="lyOv5FIl9pwsdQ8Ih314-5" value="" style="rounded=0;whiteSpace=wrap;html=1;" vertex="1" parent="1">
          <mxGeometry x="140" y="90" width="530" height="360" as="geometry" />
        </mxCell>
        <object label="" id="lyOv5FIl9pwsdQ8Ih314-9">
          <mxCell style="rounded=1;whiteSpace=wrap;html=1;fillColor=#FFB366;" vertex="1" parent="1">
            <mxGeometry x="100" y="90" width="30" height="360" as="geometry" />
          </mxCell>
        </object>
        <mxCell id="lyOv5FIl9pwsdQ8Ih314-10" value="Firewall" style="text;html=1;strokeColor=none;fillColor=none;align=center;verticalAlign=middle;whiteSpace=wrap;rounded=0;rotation=-91;" vertex="1" parent="1">
          <mxGeometry x="36.67" y="232.51" width="155" height="20" as="geometry" />
        </mxCell>
        <mxCell id="lyOv5FIl9pwsdQ8Ih314-11" value="Nginx (Web server and load balancer)" style="rounded=1;whiteSpace=wrap;html=1;fillColor=#E6E6E6;" vertex="1" parent="1">
          <mxGeometry x="160" y="110" width="90" height="290" as="geometry" />
        </mxCell>
        <mxCell id="lyOv5FIl9pwsdQ8Ih314-21" value="" style="endArrow=classic;startArrow=classic;html=1;exitX=0.218;exitY=0.432;exitDx=0;exitDy=0;exitPerimeter=0;" edge="1" parent="1">
          <mxGeometry width="50" height="50" relative="1" as="geometry">
            <mxPoint x="251.9000000000001" y="244.84000000000003" as="sourcePoint" />
            <mxPoint x="312" y="245" as="targetPoint" />
          </mxGeometry>
        </mxCell>
        <mxCell id="lyOv5FIl9pwsdQ8Ih314-22" value="" style="endArrow=classic;startArrow=classic;html=1;exitX=0.218;exitY=0.432;exitDx=0;exitDy=0;exitPerimeter=0;" edge="1" parent="1">
          <mxGeometry width="50" height="50" relative="1" as="geometry">
            <mxPoint x="380.0000000000001" y="230.00000000000003" as="sourcePoint" />
            <mxPoint x="440.1" y="230.16" as="targetPoint" />
          </mxGeometry>
        </mxCell>
        <mxCell id="lyOv5FIl9pwsdQ8Ih314-23" value="" style="aspect=fixed;pointerEvents=1;shadow=0;dashed=0;html=1;strokeColor=none;labelPosition=center;verticalLabelPosition=bottom;verticalAlign=top;align=center;fillColor=#00188D;shape=mxgraph.mscae.enterprise.application_server" vertex="1" parent="1">
          <mxGeometry x="310" y="180" width="90" height="104.65" as="geometry" />
        </mxCell>
        <mxCell id="lyOv5FIl9pwsdQ8Ih314-24" value="Application server" style="text;html=1;strokeColor=none;fillColor=none;align=center;verticalAlign=middle;whiteSpace=wrap;rounded=0;" vertex="1" parent="1">
          <mxGeometry x="310" y="300" width="90" height="20" as="geometry" />
        </mxCell>
        <mxCell id="lyOv5FIl9pwsdQ8Ih314-25" value="" style="aspect=fixed;pointerEvents=1;shadow=0;dashed=0;html=1;strokeColor=none;labelPosition=center;verticalLabelPosition=bottom;verticalAlign=top;align=center;fillColor=#00188D;shape=mxgraph.mscae.enterprise.application_server" vertex="1" parent="1">
          <mxGeometry x="450" y="185" width="81.7" height="95" as="geometry" />
        </mxCell>
        <mxCell id="lyOv5FIl9pwsdQ8Ih314-26" value="API Server&lt;br&gt;" style="text;html=1;strokeColor=none;fillColor=none;align=center;verticalAlign=middle;whiteSpace=wrap;rounded=0;" vertex="1" parent="1">
          <mxGeometry x="451.7" y="295" width="80" height="20" as="geometry" />
        </mxCell>
        <mxCell id="lyOv5FIl9pwsdQ8Ih314-29" value="" style="outlineConnect=0;fontColor=#232F3E;gradientColor=none;fillColor=#3334B9;strokeColor=none;dashed=0;verticalLabelPosition=bottom;verticalAlign=top;align=center;html=1;fontSize=12;fontStyle=0;aspect=fixed;pointerEvents=1;shape=mxgraph.aws4.rds_sql_server_instance;" vertex="1" parent="1">
          <mxGeometry x="580" y="193.32999999999998" width="78" height="78" as="geometry" />
        </mxCell>
        <mxCell id="lyOv5FIl9pwsdQ8Ih314-30" value="" style="endArrow=classic;startArrow=classic;html=1;exitX=0.218;exitY=0.432;exitDx=0;exitDy=0;exitPerimeter=0;" edge="1" parent="1">
          <mxGeometry width="50" height="50" relative="1" as="geometry">
            <mxPoint x="514.9" y="232.51" as="sourcePoint" />
            <mxPoint x="574.9999999999999" y="232.66999999999996" as="targetPoint" />
          </mxGeometry>
        </mxCell>
      </root>
    </mxGraphModel>
  </diagram>
</mxfile>
